<?xml version="1.0" encoding="UTF-8" standalone="no"?>
<!-- Uploaded to: SVG Repo, www.svgrepo.com, Generator: SVG Repo Mixer Tools -->

<svg
   fill="#000000"
   height="800px"
   width="800px"
   version="1.1"
   id="Layer_1"
   viewBox="0 0 293.151 293.151"
   xml:space="preserve"
   sodipodi:docname="stopwatch-svgrepo-com-white.svg"
   inkscape:export-filename="stopwatch-svgrepo-com.png"
   inkscape:export-xdpi="96"
   inkscape:export-ydpi="96"
   inkscape:version="1.4 (e7c3feb1, 2024-10-09)"
   xmlns:inkscape="http://www.inkscape.org/namespaces/inkscape"
   xmlns:sodipodi="http://sodipodi.sourceforge.net/DTD/sodipodi-0.dtd"
   xmlns="http://www.w3.org/2000/svg"
   xmlns:svg="http://www.w3.org/2000/svg"><defs
   id="defs5" /><sodipodi:namedview
   id="namedview5"
   pagecolor="#ffffff"
   bordercolor="#000000"
   borderopacity="0.25"
   inkscape:showpageshadow="2"
   inkscape:pageopacity="0.0"
   inkscape:pagecheckerboard="0"
   inkscape:deskcolor="#d1d1d1"
   inkscape:zoom="0.48800903"
   inkscape:cx="435.44276"
   inkscape:cy="285.85536"
   inkscape:window-width="1296"
   inkscape:window-height="762"
   inkscape:window-x="217"
   inkscape:window-y="38"
   inkscape:window-maximized="0"
   inkscape:current-layer="g4" />
<g
   id="g5">
	<g
   id="g4">
		<g
   id="g3">
			<path
   d="M223.376,75.065l13.07-20.077c1.506-2.314,0.853-5.41-1.461-6.918l-21.55-14.04c-2.323-1.512-5.418-0.844-6.919,1.46     l-13.974,21.451c-9.067-3.686-18.464-6.24-28.106-7.646V28h1.942c2.762,0,5-2.239,5-5V5c0-2.761-2.238-5-5-5h-39.605     c-2.762,0-5,2.239-5,5v18c0,2.761,2.238,5,5,5h1.942v21.296c-9.645,1.406-19.043,3.96-28.107,7.645l-13.973-21.45     c-1.502-2.307-4.6-2.972-6.919-1.46l-21.55,14.04c-2.313,1.507-2.967,4.604-1.461,6.918l13.071,20.077     c-27.886,22.437-45.771,56.853-45.771,95.505c0,67.591,54.984,122.58,122.57,122.58s122.57-54.989,122.57-122.58     C269.147,132.68,251.865,97.985,223.376,75.065z M212.166,45.139l13.173,8.582l-10.011,15.377     c-4.254-2.887-9.054-5.698-13.57-7.981L212.166,45.139z M131.774,10h29.605v8c-11.147,0-19.413,0-29.605,0V10z M154.437,28v20     h-15.721V28H154.437z M67.814,53.721l13.172-8.582l10.408,15.978c-4.778,2.416-9.645,5.318-13.569,7.981L67.814,53.721z      M146.577,283.15c-62.071,0-112.57-50.503-112.57-112.58C34.006,108.155,84.671,58,146.577,58     c45.496,0,84.744,27.052,102.451,65.865c0,0,10.119,19.543,10.119,46.705C259.147,232.647,208.647,283.15,146.577,283.15z"
   id="path1"
   style="fill:#ffffff" />
			<path
   d="M151.577,156.095v-26.426c0-2.761-2.238-5-5-5c-2.762,0-5,2.239-5,5v26.426c-6.004,2.08-10.333,7.777-10.333,14.48     c0,8.455,6.878,15.333,15.333,15.333s15.333-6.878,15.333-15.333C161.91,163.872,157.58,158.175,151.577,156.095z      M146.577,175.908c-2.94,0-5.333-2.393-5.333-5.333c0-2.941,2.393-5.333,5.333-5.333s5.333,2.393,5.333,5.333     S149.517,175.908,146.577,175.908z"
   id="path2"
   style="fill:#ffffff" />
			<path
   d="M215.981,101.909c-0.11-0.136-0.206-0.281-0.333-0.408c-0.127-0.127-0.271-0.222-0.407-0.333     c-17.657-17.472-41.922-28.279-68.665-28.279s-51.008,10.808-68.665,28.28c-0.136,0.11-0.28,0.206-0.407,0.333     c-0.127,0.127-0.223,0.271-0.333,0.408C39.486,140,39.454,201.105,77.165,239.232c0.112,0.14,0.211,0.287,0.34,0.417     c0.129,0.129,0.276,0.227,0.416,0.34c38.076,37.671,99.175,37.733,137.313,0c0.139-0.112,0.286-0.21,0.416-0.34     s0.228-0.277,0.34-0.417c17.454-17.647,28.253-41.89,28.267-68.611c0-0.015,0.004-0.03,0.004-0.045     c0-0.016-0.005-0.03-0.005-0.045C244.244,143.805,233.442,119.557,215.981,101.909z M229.577,175.575h4.534     c-1.154,20.417-9.324,38.985-22.131,53.331l-3.178-3.178c-1.951-1.952-5.119-1.952-7.07,0c-1.953,1.953-1.953,5.119,0,7.071     l3.178,3.178c-14.346,12.811-32.915,20.983-53.332,22.137v-4.54c0-2.761-2.238-5-5-5c-2.762,0-5,2.239-5,5v4.54     c-20.417-1.154-38.986-9.326-53.332-22.137l3.178-3.178c1.953-1.953,1.953-5.119,0-7.071c-1.951-1.952-5.119-1.952-7.07,0     l-3.178,3.178c-12.807-14.347-20.977-32.915-22.131-53.331h4.534c2.762,0,5-2.239,5-5s-2.238-5-5-5h-4.534     c1.153-20.417,9.323-38.986,22.131-53.333l3.178,3.178c1.952,1.953,5.119,1.952,7.07,0c1.953-1.953,1.953-5.119,0-7.071     l-3.178-3.178c14.346-12.81,32.915-20.981,53.333-22.135v4.539c0,2.761,2.238,5,5,5c2.762,0,5-2.239,5-5v-4.539     c20.417,1.154,38.986,9.325,53.333,22.135l-3.178,3.178c-1.953,1.953-1.953,5.119,0,7.071c1.952,1.953,5.119,1.952,7.07,0     l3.179-3.178c12.808,14.347,20.979,32.916,22.131,53.333h-4.534c-2.762,0-5,2.239-5,5S226.814,175.575,229.577,175.575z"
   id="path3"
   style="fill:#ffffff" />
		</g>
	</g>
</g>
</svg>
